<svg enable-background="new 0 0 49.8 50" viewBox="0 0 49.8 50" xmlns="http://www.w3.org/2000/svg"><g fill="#fff"><path d="m25 4.5c6.7 0 7.5 0 10.1.1 2.4.1 3.8.5 4.6.9 1.2.5 2 1 2.9 1.9s1.4 1.7 1.9 2.9c.3.9.7 2.2.9 4.6.1 2.6.1 3.4.1 10.1s0 7.5-.1 10.1c-.1 2.4-.5 3.8-.9 4.6-.5 1.2-1 2-1.9 2.9s-1.7 1.4-2.9 1.9c-.9.3-2.2.7-4.6.9-2.6.1-3.4.1-10.1.1s-7.5 0-10.1-.1c-2.4-.1-3.8-.5-4.6-.9-1.2-.5-2-1-2.9-1.9s-1.4-1.7-1.9-2.9c-.3-.9-.7-2.2-.9-4.6-.1-2.6-.1-3.4-.1-10.1s0-7.5.1-10.1c.1-2.4.5-3.8.9-4.6.5-1.2 1-2 1.9-2.9s1.7-1.4 2.9-1.9c.9-.3 2.2-.7 4.6-.9 2.6-.1 3.4-.1 10.1-.1m0-4.5c-6.8 0-7.6 0-10.3.2-2.7.1-4.5.5-6.1 1.1-1.6.7-3 1.5-4.4 2.9s-2.2 2.8-2.9 4.4c-.6 1.6-1 3.4-1.2 6.1-.1 2.7-.1 3.5-.1 10.3s0 7.6.2 10.3c.1 2.7.5 4.5 1.2 6.1.6 1.6 1.5 3 2.9 4.4 1.3 1.4 2.7 2.2 4.3 2.9 1.6.6 3.4 1 6.1 1.2 2.7.1 3.5.1 10.3.1s7.6 0 10.3-.2c2.7-.1 4.5-.5 6.1-1.2 1.6-.6 3-1.5 4.4-2.9s2.2-2.8 2.9-4.4c.6-1.6 1-3.4 1.2-6.1.1-2.6.1-3.4.1-10.2s0-7.6-.2-10.3c-.1-2.7-.5-4.5-1.2-6.1-.6-1.6-1.5-3-2.9-4.4-1.3-1.4-2.7-2.2-4.3-2.9-1.6-.6-3.4-1-6.1-1.2-2.7-.1-3.5-.1-10.3-.1z"/><path d="m25 12.2c-7.1 0-12.8 5.7-12.8 12.8s5.7 12.8 12.8 12.8 12.8-5.7 12.8-12.8-5.7-12.8-12.8-12.8zm0 21.1c-4.6 0-8.3-3.7-8.3-8.3s3.7-8.3 8.3-8.3 8.3 3.7 8.3 8.3-3.7 8.3-8.3 8.3z"/><circle cx="38.3" cy="11.7" r="3"/></g></svg>